<svg width="1294" height="1519" viewBox="0 0 1294 1519" fill="none" xmlns="http://www.w3.org/2000/svg">
<!-- Dark-mode card body — EXACT same fills as icon-dark.svg so .nest and .kl sit next to each other in the file tree harmoniously. -->
<path d="M142.838 0.84159C198.334 -0.937411 262.894 0.657594 318.974 0.652594L664.171 0.624579L866.021 0.626593L929.411 0.64057C956.451 0.66957 978.421 -2.6804 999.491 17.7566C1020.18 37.8296 1040.43 58.2876 1060.81 78.6796L1181.94 200.358L1249.72 268.559C1271.1 290.048 1292.5 304.103 1292.82 336.91C1293.08 362.244 1293.14 387.613 1293.13 412.966V552.747L1293.11 985.053L1293.12 1257.72L1293.13 1339.54C1293.13 1353.84 1293.68 1374.04 1292.11 1387.82C1288.66 1418.01 1275.54 1448.68 1254.69 1471.04C1225.59 1502.25 1191.5 1516.2 1149.45 1517.95L431.887 1517.93L226.389 1517.88C194.228 1517.85 155.273 1519.38 123.717 1516.33C95.5344 1512.28 70.1654 1499.31 49.1354 1481.06C-9.32162 1430.33 0.60338 1358.76 0.68638 1289.13L0.779397 1127.02L0.762399 616.327L0.717386 287.719L0.695382 186.268C0.699382 171.531 0.0143847 145.04 1.63538 131.015C4.90938 99.9796 17.9184 70.7756 38.7984 47.5836C66.1264 17.2336 102.606 2.73059 142.838 0.84159Z" fill="#3A3D41"/>
<path d="M143.919 15.832C163.818 15.162 186.382 15.718 206.584 15.727L323.341 15.743L679.371 15.775L869.601 15.732L925.801 15.713C938.541 15.699 958.361 15.157 970.521 17.639C986.361 20.873 982.411 63.019 982.371 75.293L982.221 187.651C982.161 223.721 976.931 266.794 1000.36 296.703C1011.69 311.187 1027.39 321.63 1045.12 326.484C1061.29 330.823 1087.05 329.675 1104.53 329.665L1211.77 329.589C1226.55 329.58 1256 328.746 1269.32 330.469L1270.66 330.651C1274.48 334.023 1278.57 337.944 1278.77 343.311C1279.39 359.1 1279.13 375.719 1279.13 391.502L1279.12 491.841L1279.1 822.843L1279.12 1204.69L1279.15 1321.96C1279.15 1338.51 1280 1370.02 1278.32 1385.39C1275.42 1411.38 1265.04 1435.96 1248.43 1456.15C1222.53 1487.04 1192.49 1499.81 1153.35 1503.33C1076.35 1504.54 996.331 1503.43 919.131 1503.43L463.017 1503.47L241.82 1503.46L175.956 1503.48C130.461 1503.49 96.1423 1503.88 59.6783 1471.21C33.1953 1447.78 17.1953 1414.72 15.2513 1379.41C13.8243 1353.21 14.8694 1317.53 14.8794 1290.8L14.9083 1125.54L14.9273 618.484L14.8983 287.582L14.8233 185.747C14.8193 170.968 14.6733 155.628 15.1043 141.382C16.7633 86.559 54.3673 36.946 107.08 21.273C120.659 17.235 129.945 16.486 143.919 15.832Z" fill="#2B2D30"/>
<path d="M989.912 31.7383C995.472 35.3233 1011.99 52.6553 1017.87 58.5273L1076.19 116.85L1203.22 244.273C1224.58 265.687 1246.17 287.125 1267.4 308.672C1270.98 312.304 1274.02 317.142 1276.73 321.475C1257.48 323.266 1225.45 322.286 1204.86 322.289L1078.42 322.396C1052.18 322.366 1031.57 317.769 1012.4 298.762C984.952 271.56 990.302 238.971 989.942 203.814C989.872 196.516 989.942 189.236 989.942 181.963L989.912 31.7383Z" fill="#4A4D52"/>
<!-- Group 30 at native scale, same position as the light variant. Mark colors use the lighter #3CABFA / #4AB4C0 that already work on dark backgrounds elsewhere in icon-dark.svg. -->
<g transform="translate(191.5 500)">
<path d="M796.55 0.0228957C858.661 -0.0422898 866.146 34.821 865.907 86.1764L865.647 130.296C865.56 147.418 865.06 154.187 871.046 170.505C878.151 189.887 904.78 185.476 908.897 197.068C916.959 219.774 878.999 212.223 871.448 231.192C849.97 285.123 896.469 373.797 821.266 397.188C813.705 399.078 806.752 399.643 798.669 399.187C787.598 398.578 786.088 388.018 788.141 378.957C791.02 366.224 808.837 372.439 818.17 366.561C825.514 361.933 829.827 355.979 832 347.092C838.638 311.599 828.828 269.685 836.911 234.354C840.539 218.503 849.97 209.562 863.474 201.848C832.706 183.064 833.88 158.402 833.999 126.765L834.293 80.1793C834.64 6.55222 797.778 43.4038 787.924 18.5573C786.262 14.4288 786.511 9.77899 788.63 5.857C790.77 1.82636 792.682 1.27229 796.55 0.0228957ZM100.697 0.0228957C106.386 0.0228957 110.949 -0.22703 116.547 0.924581C121.981 4.86831 122.539 13.4836 121.333 19.6328C118.663 33.2457 97.7892 27.6724 89.4107 33.2457C72.4049 44.5663 75.7196 71.564 75.4002 89.251C75.6881 104.352 75.2448 120.029 75.5664 135.066C76.227 165.877 74.0378 185.052 45.1834 201.816C48.0983 203.434 53.714 206.672 56.2421 208.454C89.4552 231.855 70.0387 304.82 76.0683 340.639C82.0491 376.165 96.5323 362.976 118.053 373.167C120.853 375.687 121.906 382.293 121.967 385.226C122.315 401.794 111.884 399.284 98.8843 399.056C88.371 397.97 77.5458 394.135 68.9446 387.931C27.4616 358.044 49.7953 286.524 41.9068 242.643C36.63 213.288 16.1683 221.252 4.09155 211.104C1.74052 209.127 0.386814 206.987 0.0750097 203.923C-1.53181 188.159 23.1094 187.464 32.4744 179.359C57.8273 157.413 29.7171 64.1328 54.6592 25.5864C56.1998 23.2071 57.913 20.9474 59.7839 18.818C70.7611 6.36754 84.6381 1.18537 100.697 0.0228957Z" fill="#4AB4C0"/>
<path d="M608.218 158.848C611.52 159.282 610.445 159.076 613.574 160.51C621.657 172.319 589.738 198.361 580.894 205.021C524.031 247.772 467.384 259.396 397.748 249.814C393.408 248.793 388.389 248.174 385.125 245.381L385.003 243.187C387.995 241.286 410.014 241.394 416.518 240.862C429.034 239.819 441.473 238.026 453.761 235.473C514.101 222.784 560.176 195.775 608.218 158.848Z" fill="#3CABFA"/>
<path d="M450.317 289.654C437.899 290.99 413.15 288.763 400.507 286.362C364.834 279.604 328.097 262.406 306.695 231.856C304.402 228.585 304.808 227.51 305.499 224.609C310.995 221.85 323.305 233.561 330.796 237.994C373.77 263.46 406.351 267.643 454.239 268.892C460.573 269.555 462.659 269.652 468.993 269.174C469.036 274.248 469.959 282.527 467.515 286.09C460.573 287.448 456.673 286.916 450.317 289.654Z" fill="#3CABFA"/>
<path d="M276.965 158.771C283.193 159.021 286.97 162.737 291.656 166.366C323.159 190.767 357.348 206.444 396.135 215.244C405.098 217.275 451.327 219.731 454.228 221.795L453.794 223.533L450.752 224.87C403.11 230.497 363.338 229.748 319.345 206.509C305.943 199.425 281.963 182.716 274.696 167.18C273.399 164.41 275.584 161.346 276.965 158.771Z" fill="#3CABFA"/>
<path d="M454.239 268.893C488.896 265.569 519.902 259.843 550.79 243.21C556.895 239.929 576.049 225.067 581.372 225.99L582.796 227.75C581.079 236.811 559.209 253.151 551.691 258.605C526.845 276.661 481.15 290.622 450.317 289.655C456.672 286.917 460.573 287.449 467.515 286.091C469.959 282.528 469.036 274.249 468.993 269.176C462.659 269.654 460.573 269.556 454.239 268.893Z" fill="#3CABFA"/>
<path d="M698.858 143.116C730.941 143.474 718.827 189.821 691.449 192.429L690.363 188.974C693.339 179.207 704.964 181.119 705.583 169.049C700.021 167.8 684.279 165.018 687.255 155.099C689.265 148.363 692.731 146.136 698.858 143.116ZM736.894 143.094C767.466 141.704 760.893 179.609 732.081 193.135C723.933 181.825 740.718 183.672 743.043 171.504C739.1 165.887 724.031 167.604 727.203 153.752C728.55 147.853 732.157 146.18 736.894 143.094ZM177.96 142.703C181.986 144.083 180.525 142.877 182.786 146.038C182.039 150.525 172.913 156.207 168.242 165.344L167.551 166.735C185.019 166.583 194.8 175.405 179.89 190.06C150.924 199.491 148.356 159.727 177.96 142.703ZM217.318 142.714C220.939 143.453 219.393 142.66 222.105 145.213C221.345 151.362 211.674 156.327 207.789 164.953C208.872 169.69 219.142 164.236 222.971 170.765C227.651 178.751 224.089 185.106 218.437 190.321C188.817 198.491 188.738 158.641 217.318 142.714Z" fill="#3CABFA"/>
</g>
</svg>
