<svg version="1.1" xmlns="http://www.w3.org/2000/svg" viewBox="0 0 2048 2048" width="1000" height="1000" preserveAspectRatio="none" display="block"><path fill="rgb(255,255,255)" d="M 0 0 L 2048 0 L 2048 2048 L 0 2048 L 0 0 z" data-c-fill="ffffff" fill-opacity="0"/><path fill="#710dd5" d="M 519.737 261.449 C 575.233 259.67 639.793 261.265 695.873 261.26 L 1041.07 261.232 L 1242.92 261.234 L 1306.31 261.248 C 1333.35 261.277 1355.32 257.927 1376.39 278.364 C 1397.08 298.437 1417.33 318.895 1437.71 339.287 L 1558.84 460.965 L 1626.62 529.166 C 1648 550.655 1669.4 564.71 1669.72 597.517 C 1669.98 622.851 1670.04 648.22 1670.03 673.573 L 1670.03 813.354 L 1670.01 1245.66 L 1670.02 1518.33 L 1670.03 1600.15 C 1670.03 1614.45 1670.58 1634.65 1669.01 1648.43 C 1665.56 1678.62 1652.44 1709.29 1631.59 1731.65 C 1602.49 1762.86 1568.4 1776.81 1526.35 1778.56 L 808.786 1778.54 L 603.288 1778.49 C 571.127 1778.46 532.172 1779.99 500.616 1776.94 C 472.433 1772.89 447.064 1759.92 426.034 1741.67 C 367.577 1690.94 377.502 1619.37 377.585 1549.74 L 377.678 1387.63 L 377.661 876.934 L 377.616 548.326 L 377.594 446.875 C 377.598 432.138 376.913 405.647 378.534 391.622 C 381.808 360.587 394.817 331.383 415.697 308.191 C 443.025 277.841 479.505 263.338 519.737 261.449 z" data-c-fill="d4d3d5" fill-opacity="0"/><path fill="rgb(255,255,255)" d="M 520.818 276.439 C 540.717 275.769 563.281 276.325 583.483 276.334 L 700.24 276.35 L 1056.27 276.382 L 1246.5 276.339 L 1302.7 276.32 C 1315.44 276.306 1335.26 275.764 1347.42 278.246 C 1363.26 281.48 1359.31 323.626 1359.27 335.9 L 1359.12 448.258 C 1359.06 484.328 1353.83 527.401 1377.26 557.31 C 1388.59 571.794 1404.29 582.237 1422.02 587.091 C 1438.19 591.43 1463.95 590.282 1481.43 590.272 L 1588.67 590.196 C 1603.45 590.187 1632.9 589.353 1646.22 591.076 L 1647.56 591.258 C 1651.38 594.63 1655.47 598.551 1655.67 603.918 C 1656.29 619.707 1656.03 636.326 1656.03 652.109 L 1656.02 752.448 L 1656 1083.45 L 1656.02 1465.3 L 1656.05 1582.57 C 1656.05 1599.12 1656.9 1630.63 1655.22 1646 C 1652.32 1671.99 1641.94 1696.57 1625.33 1716.76 C 1599.43 1747.65 1569.39 1760.42 1530.25 1763.94 C 1453.25 1765.15 1373.23 1764.04 1296.03 1764.04 L 839.916 1764.08 L 618.719 1764.07 L 552.855 1764.09 C 507.36 1764.1 473.041 1764.49 436.577 1731.82 C 410.094 1708.39 394.094 1675.33 392.15 1640.02 C 390.723 1613.82 391.768 1578.14 391.778 1551.41 L 391.807 1386.15 L 391.826 879.091 L 391.797 548.189 L 391.722 446.354 C 391.718 431.575 391.572 416.235 392.003 401.989 C 393.662 347.166 431.266 297.553 483.979 281.88 C 497.558 277.842 506.844 277.093 520.818 276.439 z" data-c-fill="ffffff" fill-opacity="0"/><path fill="rgb(0,52,139)" d="M 735.05 641.421 C 755.492 642.223 769.405 647.206 784.466 661.49 C 808.72 684.494 804.51 715.492 804.513 746.257 L 804.49 819.304 L 804.476 1077.81 C 843.032 1037.12 887.839 994.503 927.999 954.414 L 968.521 913.98 C 988.965 893.602 1002.96 876.776 1034.2 875.898 C 1051.56 875.486 1068.36 882.068 1080.82 894.164 C 1093.94 906.704 1101.45 924.008 1101.64 942.158 C 1101.86 957.866 1097.35 973.278 1088.7 986.394 C 1081.94 996.484 1056.86 1019.65 1046.82 1029.91 C 1015.84 1061.58 983.329 1092.58 952.507 1124.41 C 1007.18 1161.64 1032.82 1203.94 1061.69 1261.91 C 1083.33 1305.34 1101.05 1360.18 1144.27 1386.06 C 1150.73 1389.33 1156.49 1392.13 1162.34 1396.46 C 1189.39 1416.52 1194.35 1453.57 1173.8 1480.26 C 1163.56 1493.32 1148.52 1501.73 1132.03 1503.62 C 1110.36 1505.95 1085.83 1496.14 1067.46 1486.61 C 980.107 1441.34 956.555 1345.52 913.111 1265.71 C 897.553 1238.9 866.773 1214.81 834.447 1219.44 C 799.354 1224.46 805.979 1259.76 803.559 1284.96 C 802.543 1295.54 797.364 1308.46 790.728 1316.78 C 779.131 1331.57 762.024 1341.01 743.329 1342.95 C 723.85 1344.87 706.928 1339.75 691.708 1327.34 C 663.263 1304.15 667.401 1270.78 667.435 1237.62 L 667.513 1167.05 L 667.495 946.835 L 667.463 783.226 L 667.421 735.274 C 667.34 708.883 665.804 685.895 684.763 664.451 C 698.479 648.937 714.695 642.788 735.05 641.421 z" data-c-fill="00348b"/><path fill="rgb(0,169,162)" d="M 1248.34 641.423 C 1265.28 641.415 1279.82 646.434 1292.95 657.07 C 1320.99 679.794 1317.69 710.204 1317.7 742.268 L 1317.66 822.231 L 1317.67 1128.3 L 1317.56 1217.6 C 1317.52 1232.97 1316.99 1252.37 1318.08 1266.81 C 1320.29 1293.74 1346.06 1321.29 1372.81 1325.74 C 1397.54 1329.86 1411.14 1324.62 1433.32 1342.56 C 1446.51 1353.33 1454.96 1368.85 1456.85 1385.78 C 1461.17 1426.65 1433.46 1454.87 1393.88 1458.87 C 1276.42 1459.84 1183.54 1374.5 1182.86 1253.91 C 1182.82 1247.07 1182.86 1240.13 1182.87 1233.28 L 1182.91 1168.1 L 1182.94 957.1 L 1182.87 785.456 L 1182.87 734.467 C 1182.87 724.219 1182.46 710.566 1183.61 700.709 C 1185.09 687.322 1190.6 674.702 1199.43 664.53 C 1212.58 649.353 1228.71 642.791 1248.34 641.423 z" data-c-fill="00a9a2"/><path fill="rgb(254,114,1)" d="M 697.858 1396.14 C 718.006 1394.56 740.377 1396.56 760.735 1395.65 C 769.173 1395.27 778.563 1396.35 786.075 1400.41 C 794.817 1405.04 801.302 1413.02 804.042 1422.52 C 806.967 1432.71 805.651 1443.65 800.393 1452.86 C 794.328 1463.23 786.222 1467.73 775.19 1470.78 C 769.92 1471.23 760.471 1471.55 755.234 1471.13 C 725.451 1468.75 679.081 1482.43 668.624 1443.49 C 665.999 1433.46 667.548 1422.79 672.917 1413.92 C 679.095 1403.53 686.701 1399.08 697.858 1396.14 z" data-c-fill="fe7201"/><path fill="rgb(255,255,255)" d="M 1366.81 292.345 C 1372.37 295.93 1388.89 313.262 1394.77 319.134 L 1453.09 377.457 L 1580.12 504.88 C 1601.48 526.294 1623.07 547.732 1644.3 569.279 C 1647.88 572.911 1650.92 577.749 1653.63 582.082 C 1634.38 583.873 1602.35 582.893 1581.76 582.896 L 1455.32 583.003 C 1429.08 582.973 1408.47 578.376 1389.3 559.369 C 1361.85 532.167 1367.2 499.578 1366.84 464.421 C 1366.77 457.123 1366.84 449.843 1366.84 442.57 L 1366.81 292.345 z" data-c-fill="ffffff" fill-opacity="0"/></svg>